<svg xmlns="http://www.w3.org/2000/svg" width="109" height="113" viewBox="0 0 109 113">
    <g fill="none" fill-rule="evenodd">
        <g fill="#FFF" fill-rule="nonzero">
            <g>
                <g>
                    <g>
                        <path d="M.224.821L.224 10.875 2.613 10.875 2.613 6.708 7.681 6.708 8.525 4.851 2.613 4.851 2.613 2.67 10.294 2.67 11.138.821zM18.22 2.555l2.295 4.283h-4.598l2.303-4.283zM16.74.821l-5.364 10.062h2.411l1.163-2.188h6.561l1.162 2.18h2.411L19.735.813H16.74v.008zM54.327.835L54.327 4.858 46.906 4.858 46.906.835 44.517.835 44.517 10.883 46.906 10.883 46.906 6.852 54.327 6.852 54.327 10.883 56.716 10.883 56.716.835zM97.458.892L97.458 10.955 107.6 10.955 108.444 9.105 108.444 9.098 99.847 9.098 99.847 6.78 105.679 6.78 106.524 4.93 99.847 4.93 99.847 2.749 107.527 2.749 108.372.892zM67.515.518c.476 0 .931.029 1.379.094 1.068.15 2.071.482 3.003 1.036.541.324 1.032.72 1.436 1.202.498.59.83 1.26.982 2.015.087.454.108.915.08 1.375-.066.9-.354 1.72-.91 2.44-.361.475-.801.871-1.3 1.202-.714.482-1.494.813-2.331 1.022-.412.1-.823.173-1.242.223-.534.058-1.068.072-1.595.043-.758-.036-1.509-.15-2.23-.381-.73-.23-1.423-.547-2.043-.993-.535-.389-1.004-.835-1.365-1.397-.31-.482-.512-1-.62-1.561-.08-.418-.109-.843-.087-1.274.05-1.008.39-1.908 1.032-2.692.383-.46.837-.835 1.343-1.159.693-.44 1.45-.741 2.252-.943.397-.1.801-.173 1.213-.209.339-.028.685-.043 1.003-.043m.007 8.788c.188 0 .433-.007.672-.028.397-.036.786-.101 1.162-.224.39-.115.758-.273 1.104-.496.556-.36.982-.828 1.242-1.44.21-.49.274-1 .238-1.533-.022-.374-.108-.734-.267-1.072-.274-.598-.708-1.058-1.27-1.404-.686-.417-1.444-.626-2.238-.698-.325-.029-.65-.029-.975-.014-.411.021-.815.072-1.213.172-.534.137-1.039.346-1.487.663-.54.381-.945.87-1.169 1.497-.21.561-.238 1.144-.137 1.727.137.777.52 1.404 1.133 1.893.426.338.91.561 1.422.713.563.172 1.14.237 1.783.244M37.659.821L37.659 8.025 37.659 8.068 37.659 8.191 37.544 8.068 37.544 8.068 37.392 7.91 37.378 7.896 30.65.821 27.835.821 27.835 10.883 30.224 10.883 30.224 3.664 30.224 3.642 30.224 3.534 30.325 3.642 30.383 3.699 30.39 3.707 37.219 10.883 40.056 10.883 40.056.821zM90.16.821L85.677 6.219 81.194.821 78.365.821 78.365 10.875 80.754 10.875 80.754 3.563 80.927 3.764 85.677 9.472 90.369 3.843 90.6 3.563 90.6 10.875 92.996 10.875 92.996.821z" transform="translate(-133 -241) translate(16 241) translate(117) translate(0 101.484)"/>
                    </g>
                    <path d="M78.733 19.44l-5.494 10.214H51.75l-4.172 10.011h20.277l-5.493 10.213-7.904-.007-19.411 19.764 12.531-29.97H36.425l8.445-20.217h33.863v-.008zm16.855 21.953c0-22.73-18.472-41.155-41.261-41.155-22.79 0-41.261 18.425-41.261 41.155s18.472 41.155 41.26 41.155c22.79 0 41.262-18.426 41.262-41.155" transform="translate(-133 -241) translate(16 241) translate(117)"/>
                </g>
            </g>
        </g>
    </g>
</svg>
