<?xml version="1.0" encoding="utf-8"?>
<!-- Generator: Adobe Illustrator 23.0.3, SVG Export Plug-In . SVG Version: 6.00 Build 0)  -->
<svg version="1.1" xmlns="http://www.w3.org/2000/svg" xmlns:xlink="http://www.w3.org/1999/xlink" x="0px" y="0px"
	 viewBox="0 0 2000 2000" style="enable-background:new 0 0 2000 2000;" xml:space="preserve">
<style type="text/css">
	.st0{display:none;}
	.st1{display:inline;fill:#808080;}
	.st2{fill:none;}
	.st3{display:inline;fill:#333333;}
	.st4{display:inline;fill:#CCCCCC;}
	.st5{fill:#FFFFFF;}
	.st6{display:inline;fill:#FFFFFF;}
	.st7{display:inline;}
	.st8{fill:none;stroke:#000000;stroke-miterlimit:10;}
</style>
<g id="sfondo" class="st0">
	<rect class="st1" width="2000" height="2000"/>
</g>
<g id="Livello_2">
	<circle class="st2" cx="1000" cy="1000" r="1000"/>
	<g id="copy" class="st0">
		<path class="st3" d="M1007.91,1337.18c323.95,0,586.57-262.62,586.57-586.57s-262.62-586.57-586.57-586.57
			S421.34,426.66,421.34,750.61S683.95,1337.18,1007.91,1337.18z M1007.91,443.24c104.68,0,189.55,150.8,189.55,336.83
			s-84.86,336.83-189.55,336.83s-189.55-150.8-189.55-336.83S903.22,443.24,1007.91,443.24z"/>
		<path class="st3" d="M1620.09,1698.15c0-11.96-0.4-23.75-1.16-35.35c-9.76-149.77-80.79-266.81-167.95-271.83
			c-1.94-0.11-3.88-0.19-5.84-0.19h-146.57c0.03,0.06,0.05,0.13,0.08,0.19h-126.72c-0.03-0.06-0.06-0.13-0.09-0.19H852.53
			c0.03,0.06,0.05,0.13,0.08,0.19h-1.82c39.64,45.21,62.34,97.7,62.34,153.69c0,55.99-22.7,108.47-62.33,153.69h1.81H924
			c33.82-42.59,53-91.04,53-142.46c0-60.35-26.38-116.63-71.92-164.12h77.63h164.68c0.05,0.06,0.1,0.13,0.16,0.19
			c39.64,45.21,62.34,97.7,62.34,153.69c0,55.59-22.39,107.71-61.5,152.7h70.21c33.8-42.58,52.96-91.01,52.96-142.4
			c0-60.35-26.38-116.63-71.92-164.12h77.63h164.68c0.05,0.06,0.11,0.13,0.16,0.19c39.64,45.21,62.34,97.7,62.34,153.69
			c0,55.56-22.37,107.67-61.45,152.65h6.83c62.68,3.81,141.13,65.56,170.25,155.7l-1.46-116.29
			C1619.58,1724.78,1620.09,1711.57,1620.09,1698.15z"/>
		<path class="st3" d="M608.32,1390.78h-42.35c-36.95-2.25-70.98-24.64-98.67-61.1l-69.03-94.6l-1.1,54.01v62.28
			c-0.95,12.97-1.46,26.18-1.46,39.6c0,11.96,0.4,23.75,1.16,35.35c1.2,18.42,3.33,36.34,6.3,53.62
			c21.18,123.24,85.21,213.81,161.65,218.21c1.94,0.11,3.88,0.19,5.84,0.19h6.91h48.89c34.31-42.82,53.76-91.63,53.76-143.44
			C680.24,1494.55,653.86,1438.27,608.32,1390.78z"/>
		<path class="st4" d="M850.79,1390.97c-0.05-0.06-0.11-0.13-0.16-0.19H685.95h-0.85h-76.78c45.54,47.49,71.92,103.77,71.92,164.12
			c0,51.81-19.46,100.62-53.76,143.44h7.18h60.95h9.5h107.88h38.81c39.63-45.21,62.33-97.7,62.33-153.69
			C913.13,1488.66,890.43,1436.18,850.79,1390.97z"/>
		<path class="st4" d="M1147.55,1391.95c-0.05-0.06-0.1-0.13-0.16-0.19H982.72h-77.63c45.54,47.49,71.92,103.77,71.92,164.12
			c0,51.42-19.18,99.87-53,142.46c-0.26,0.33-0.5,0.66-0.76,0.98h7.18h70.45h146.7c0.28-0.33,0.55-0.66,0.83-0.98
			c39.11-44.99,61.5-97.12,61.5-152.7C1209.89,1489.65,1187.19,1437.16,1147.55,1391.95z"/>
		<path class="st4" d="M1442.12,1392c-0.05-0.06-0.1-0.13-0.16-0.19h-164.68h-77.63c45.54,47.49,71.92,103.77,71.92,164.12
			c0,51.4-19.16,99.83-52.96,142.4c-0.27,0.34-0.53,0.7-0.8,1.04h7.18h70.45h146.7c0.3-0.34,0.58-0.69,0.88-1.04
			c39.08-44.98,61.45-97.08,61.45-152.65C1504.46,1489.7,1481.76,1437.22,1442.12,1392z"/>
	</g>
	<g>
		<path class="st5" d="M740.75,1347.04c-6.75,0-13.43-0.27-20.05-0.78c-23.37-1.79-45.88-6.67-67.11-14.23
			c-41.35-14.73-77.88-39.64-106.55-71.72c-22.37,25.03-39.95,54.41-51.33,86.73c-9.51,27-14.7,56.04-14.7,86.29
			c0,112.88,72.01,208.91,172.59,244.73c20.53,7.31,42.24,12.12,64.79,14.05c7.38,0.63,14.84,0.97,22.38,0.97h29.51
			c-0.44-0.04-0.89-0.06-1.34-0.1c-40.32-45.88-64.79-106.1-64.79-172.05c0-66.84,25.13-127.79,66.42-173.89H740.75z"/>
		<path class="st5" d="M1346.54,1361.73c-16.6-5.85-33.98-10.05-51.93-12.42c-3.23,3.43-6.37,6.94-9.41,10.55
			c-38.28,45.36-61.37,104-61.37,168.07c0,63.1,22.39,120.96,59.64,166.03h-1.8c1.39,0.11,2.77,0.26,4.15,0.4
			c21.08,2.06,41.42,6.64,60.71,13.44c41.71,14.69,78.55,39.72,107.42,72.02c22.37-25.03,39.95-54.41,51.33-86.73
			c9.51-27,14.7-56.04,14.7-86.29C1520,1493.58,1447.58,1397.31,1346.54,1361.73z"/>
		<path class="st5" d="M1115.16,1692.98c-1.28-1.46-2.55-2.93-3.8-4.42c-38.05-45.3-60.99-103.77-60.99-167.63
			c0-64.06,23.09-122.7,61.36-168.05c1.66-1.97,3.34-3.92,5.06-5.84h-10.13H985.8h-35.29c-45.14,46.85-72.91,110.61-72.91,180.88
			c0,62.7,22.11,120.21,58.94,165.16c0.24,0.29,0.47,0.58,0.71,0.87h169.43h30.88c-7.09,0-14.1-0.31-21.04-0.87
			C1116.05,1693.04,1115.61,1693.02,1115.16,1692.98z"/>
	</g>
	<g>
		<path class="st5" d="M1000.5,220C713.59,220,481,452.59,481,739.5S713.59,1259,1000.5,1259S1520,1026.41,1520,739.5
			S1287.41,220,1000.5,220z M1000.5,949.57c-116.02,0-210.07-94.05-210.07-210.07s94.05-210.07,210.07-210.07
			s210.07,94.05,210.07,210.07S1116.52,949.57,1000.5,949.57z"/>
	</g>
</g>
<g id="Livello_1" class="st0">
	<g>
		<rect x="490.5" y="360.5" class="st6" width="933" height="1190"/>
		<path class="st7" d="M1423,361v1189H491V361H1423 M1424,360H490v1191h934V360L1424,360z"/>
	</g>
	<g class="st7">
		<line class="st8" x1="0" y1="153.5" x2="2000" y2="153.5"/>
	</g>
	<g class="st7">
		<line class="st8" x1="0" y1="352.13" x2="2000" y2="352.13"/>
	</g>
	<g class="st7">
		<line class="st8" x1="0" y1="550.76" x2="2000" y2="550.76"/>
	</g>
	<g class="st7">
		<line class="st8" x1="0" y1="749.4" x2="2000" y2="749.4"/>
	</g>
	<g class="st7">
		<line class="st8" x1="0" y1="948.03" x2="2000" y2="948.03"/>
	</g>
	<g class="st7">
		<line class="st8" x1="0" y1="1146.66" x2="2000" y2="1146.66"/>
	</g>
	<g class="st7">
		<line class="st8" x1="0" y1="1345.3" x2="2000" y2="1345.3"/>
	</g>
	<g class="st7">
		<line class="st8" x1="0" y1="1543.93" x2="2000" y2="1543.93"/>
	</g>
	<g class="st7">
		<line class="st8" x1="0" y1="1742.56" x2="2000" y2="1742.56"/>
	</g>
	<g class="st7">
		<line class="st8" x1="224.15" y1="2000" x2="224.15" y2="0"/>
	</g>
	<g class="st7">
		<line class="st8" x1="422.78" y1="2000" x2="422.78" y2="0"/>
	</g>
	<g class="st7">
		<line class="st8" x1="621.41" y1="2000" x2="621.41" y2="0"/>
	</g>
	<g class="st7">
		<line class="st8" x1="820.05" y1="2000" x2="820.05" y2="0"/>
	</g>
	<g class="st7">
		<line class="st8" x1="1018.68" y1="2000" x2="1018.68" y2="0"/>
	</g>
	<g class="st7">
		<line class="st8" x1="1217.31" y1="2000" x2="1217.31" y2="0"/>
	</g>
	<g class="st7">
		<line class="st8" x1="1415.94" y1="2000" x2="1415.94" y2="0"/>
	</g>
	<g class="st7">
		<line class="st8" x1="1614.58" y1="2000" x2="1614.58" y2="0"/>
	</g>
	<g class="st7">
		<line class="st8" x1="1813.21" y1="2000" x2="1813.21" y2="0"/>
	</g>
</g>
</svg>
